<svg xmlns="http://www.w3.org/2000/svg" width="1300" height="910">
  <style>
    .st3,.st4,.st5{fill:none;stroke:#000;stroke-width:.4;}.st4,.st5{stroke:#000;stroke-width:.5}.st5{stroke:#000;stroke-width:.3;stroke-dasharray:3,3}
  </style>
  <g opacity=".3">
    <path class="st3" transform="rotate(-55.01 1359.788 498.692)" d="M1292.1 489.5h135.2v18.4h-135.2z"/>
    <path class="st3" transform="rotate(-55.01 1259.06 642.598)" d="M1224.1 633.4h69.8v18.4h-69.8z"/>
    <path class="st3" d="M1460.5 370.7l244.2-348.9 10.6-15.1-15.1-10.6-163.5-114.4-10.6 15 163.6 114.5-244.3 348.9z"/>
    <path class="st4" transform="scale(-1) rotate(34.99 771.19 -4441.577)" d="M1295.5 238.9h208.9v8.4h-208.9z"/>
    <path class="st4" d="M1191.5 383.4L1351 495l4.8-6.8-159.5-111.7-6.8-4.8-4.8 6.9-58.9 84 6.9 4.8zM906.1 475.9l-1.6-1.1 32.9-47-3.7-2.6-32.9 47-1.6-1.1-55.4 79.2 6.9 4.8z"/>
    <path class="st3" d="M364.7-.8l68.2-97.5 10.6-15.1-15.1-10.5-4.6-3.2 9.8-14-15.1-10.5-9.7 13.9-10.6 15.1 19.7 13.8-68.3 97.5zM595.3-372.2l4.7 3.3 15 10.5 10.6-15.1 62.2-88.9-15-10.6-62.3 89-19.7-13.8-.4.6-10.1 14.5-10.2 14.5 15.1 10.5z"/>
    <path class="st4" d="M1241.4 651.6L1081.9 540l9.3-13.4-6.8-4.8-9.3 13.4-4.8 6.8 6.8 4.8 159.5 111.7z"/>
    <path class="st3" d="M1173.3 780.9l31.8-45.3L1190 725l-31.7 45.4-172.9-121-10.6 15 172.9 121.1 15.1 10.5zM683 437.7L263.4 144l47-67.2-15.1-10.5-47 67.1-10.5 15.1 15 10.5 419.6 293.8z"/>
    <path class="st3" transform="scale(-1) rotate(34.99 1725.016 -2596.515)" d="M738.8 534.5h159.1v18.4H738.8z"/>
    <path class="st3" transform="scale(-1) rotate(34.99 -701.317 -4359.024)" d="M1277.4-230.2h193v18.4h-193z"/>
    <path d="M1221.6-339.5l78.4 54.9-7.4 10.6-78.4-54.9 7.4-10.6m-.1-.7l-8 11.4 79.2 55.5 8-11.4-79.2-55.5zM1459-173.4l77.6 54.3-7.4 10.6-77.6-54.3 7.4-10.6m-.2-.7l-8 11.4 78.4 54.9 8-11.4-78.4-54.9zM1450.5 363.4l10.6 7.4-54.8 78.2-10.6-7.4 54.8-78.2m-.1-.7l-55.3 79 11.4 8 55.3-79-11.4-8zM349.3-11.8l10.6 7.4L305.7 73l-10.6-7.4 54.2-77.4m-.1-.7l-54.7 78.2 11.4 8 54.7-78.2-11.4-8zM727.8-552.5l10.6 7.4-55.5 79.3-10.6-7.4 55.5-79.3m-.1-.7l-56.1 80.1 11.4 8 56.1-80.1-11.4-8zM569.8-368.6l10.6 7.4L429-144.9l-10.6-7.4 151.4-216.3m-.1-.7l-152 217.2 11.4 8 152-217.2-11.4-8zM1318.6 551.9l10.6 7.4-42.4 60.6-10.6-7.4 42.4-60.6m-.1-.7l-43 61.4 11.4 8 43-61.4-11.4-8zM1236.6 669l10.6 7.4-41.8 59.7-10.6-7.4 41.8-59.7m-.1-.7l-42.3 60.5 11.4 8 42.3-60.5-11.4-8zM885.8 587l95.7 67-7.4 10.6-95.7-67 7.4-10.6m-.1-.7l-8 11.4 96.5 67.6 8-11.4-96.5-67.6zM679.9 442.9l75.4 52.8-7.4 10.6-75.4-52.8 7.4-10.6m-.1-.7l-8 11.4 76.3 53.4 8-11.4-76.3-53.4z"/>
    <path class="st3" d="M794.8-615.2l415.5 290.9 10.6-15.1-415.6-290.9-15.1-10.5-10.5 15.1-51.2 73.1 15.1 10.5z"/>
    <path class="st4" d="M1136.2 147.1l39.3-56 63.3 44.3 4.8-6.8-63.4-44.4 201.9-288.3-6.9-4.8-245.8 351.2zM1037.7 273.2L774.1 88.7l337.5-482.1-6.9-4.8L762.4 90.7l270.5 189.4-85.5 122.1 6.9 4.8 131.8-188.3-6.8-4.8zM1131.5 466.6c32.7 22.9 40.6 67.9 17.8 100.6l-58.1-40.7M1316.4 180.3c27.6-39.4 16.2-94.9-23.2-122.5l-49.9 71.3"/>
    <path class="st5" d="M685.4-469.1c39.4 27.6 93.7 18 121.2-21.4l-71.3-49.9M505.8-255.6c39.4 27.6 93.7 18 121.2-21.4l-71.2-50M505.1-254.6c39.4 27.6 49 81.9 21.4 121.2l-71.3-49.9"/>
    <path class="st4" d="M1129.9 142.7c-40.6-28.4-95.2-20.6-123.6 20.1l73.5 51.5"/>
    <path class="st5" d="M1518.4-115.4c-21.7 30.9-66.6 41.8-97.6 20.1l41.5-59.4M964.4 641.3c21.7-30.9 16.5-76.9-14.5-98.6l-41.5 59.4M743.4 486.7c21.7-30.9 16.5-76.9-14.5-98.6l-41.5 59.4M1314.9 557.4c-26.9-18.8-66.9-14.3-85.8 12.6l51.6 36.1M1197.4 725.3c-26.9-18.8-36.4-58-17.5-84.9l51.6 36.1M307.7 69.9c39 27.3 96.8 20.7 124.1-18.2L357.1-.6M1225.6-321.4c-21.7 30.9-16.5 76.9 14.5 98.6l41.5-59.4"/>
    <path class="st4" d="M1336.2 203.6L1209 385.4M1358.4 219.1l-53.5 67.4M1383.8 236.9l-61.2 62M1411.6 256.4l-72.7 53.9M1441.5 277.3l-89.9 41.9M1475.7 317l-115.9 12.5M1449.5 364l-97.3-23.8M1423.8 401.7l-77.3-53.3M1396.5 440.5l-56.6-82.7M1364.2 476.2l-34.1-107.3M1317.5 461.3l.6-100.8M1285.5 439l17.3-89.3M1258.9 420.3l29.2-80.8M1233.6 402.6l37.7-74.9"/>
    <path class="st4" transform="scale(-1) rotate(-55.01 -614.695 2510.28)" d="M1284.4 277.2h45.1v85.6h-45.1z"/>
    <path class="st4" transform="scale(-1) rotate(-55.01 -618.258 2514.62)" d="M1282.7 276.2h53.1v91.5h-53.1z"/>
  </g>
</svg>