<?xml version="1.0" encoding="UTF-8"?>
<!-- Generator: Adobe Illustrator 27.3.1, SVG Export Plug-In . SVG Version: 6.00 Build 0)  -->
<svg xmlns="http://www.w3.org/2000/svg" xmlns:xlink="http://www.w3.org/1999/xlink" version="1.1" id="Laag_1" x="0px" y="0px" viewBox="0 0 300 286.5" style="enable-background:new 0 0 300 286.5;" xml:space="preserve">
<style type="text/css">
	.st0{fill:#048A8C;}
</style>
<g>
	<g>
		<path class="st0" d="M167.4,167.5c-4.6,2.4-9.8,3.7-15.3,3.7c-17.8,0-32.4-14.1-33.2-31.7l0,0c0-0.3,0-0.6,0-0.8    c0-0.3,0-0.5,0-0.8c0-0.8,0-1.6,0.1-2.4V29.2h-16.6v108.7c0,0.7,0,1.4,0.1,2.1c1.1,21.2,18,38.1,38.7,38.1    C151.3,178.1,160.5,174.1,167.4,167.5"></path>
		<path class="st0" d="M124.6,117c7.6-13.8,22-23.2,38.5-23.2c6.9,0,13.4,1.6,19.2,4.5c-8.4-6.4-18.8-10.2-30.1-10.2    c-9.9,0-19.4,2.9-27.6,8.4c0,3.1,0,10.8,0,18.5C124.6,115.7,124.6,116.4,124.6,117"></path>
		<path class="st0" d="M207.4,139.5L207.4,139.5c-0.9,29.7-25.3,53.6-55.2,53.6c-29.7,0-53.9-23.5-55.2-52.9c0-0.7,0-1.3-0.1-2h-0.2    V23.7h0.2h27.5l0,0v2.7l0.1,63.6c8.4-4.8,17.8-7.4,27.6-7.4c30.5,0,55.2,24.8,55.2,55.2c0,0.3,0,0.5,0,0.8    C207.4,139,207.4,139.3,207.4,139.5 M220.2,3.7h-140H41.5v38.7v140v38.7h38.7h140h38.7v-38.7v-140C258.8,21.1,241.5,3.7,220.2,3.7    "></path>
		<path class="st0" d="M163.1,99.3c-8.2,0-15.9,2.7-22.2,7.2c3.5-1.3,7.3-1.9,11.2-1.9c18.3,0,33.3,14.9,33.3,33.3    c0,25.2-19.9,45.7-44.3,45.7c-4.4,0-8.7-0.7-12.7-1.9c7,3.8,15.1,6,23.7,6c27.2,0,49.3-21.9,49.7-49    C201.4,116.9,184.2,99.3,163.1,99.3"></path>
	</g>
	<g>
		<g>
			<path class="st0" d="M14.6,275.9c-3.7,0-6.8-3-6.8-6.8c0-3.7,3-6.8,6.8-6.8c3.7,0,6.8,3,6.8,6.8     C21.4,272.9,18.3,275.9,14.6,275.9 M14.6,257.4c-2.5,0-4.9,0.8-6.8,2.2v-15.3h-5v24.9c0,6.5,5.3,11.7,11.7,11.7     c6.5,0,11.7-5.3,11.7-11.7C26.3,262.7,21,257.4,14.6,257.4"></path>
			<path class="st0" d="M66.3,257.4c-6.5,0-11.7,5.3-11.7,11.7v12.2h4.9v-12.2c0-3.7,3-6.8,6.8-6.8c3.7,0,6.8,3,6.8,6.8v12.2H78     v-12.2C78,262.7,72.8,257.4,66.3,257.4"></path>
			<path class="st0" d="M162.1,275.9c-3.7,0-6.8-3-6.8-6.8c0-3.7,3-6.8,6.8-6.8c3.7,0,6.8,3,6.8,6.8     C168.9,272.9,165.9,275.9,162.1,275.9 M162.1,257.4c-2.5,0-4.9,0.8-6.8,2.2v-15.3h-4.9v24.9c0,6.5,5.3,11.7,11.7,11.7     s11.7-5.3,11.7-11.7C173.9,262.7,168.6,257.4,162.1,257.4"></path>
			<path class="st0" d="M94.7,276.1c-3.7,0-6.8-3-6.8-6.8c0-3.7,3-6.8,6.8-6.8s6.8,3,6.8,6.8c0,1-0.2,1.9-0.6,2.7l-2-2l-3.5,3.5l2,2     C96.5,275.9,95.6,276.1,94.7,276.1 M106.4,269.4c0-6.5-5.3-11.7-11.7-11.7c-6.5,0-11.7,5.3-11.7,11.7c0,6.5,5.3,11.7,11.7,11.7     c2.3,0,4.5-0.7,6.4-1.9l3,3l3.5-3.5l-3-3C105.7,273.9,106.4,271.7,106.4,269.4"></path>
			<path class="st0" d="M134.6,276.1c-3.7,0-6.8-3-6.8-6.8c0-3.7,3-6.8,6.8-6.8s6.8,3,6.8,6.8C141.4,273.1,138.4,276.1,134.6,276.1      M134.6,257.6c-6.5,0-11.7,5.3-11.7,11.7c0,6.5,5.3,11.7,11.7,11.7c2.5,0,4.9-0.8,6.8-2.2v2.5h4.9v-12     C146.4,262.9,141.1,257.6,134.6,257.6"></path>
			<rect x="30.2" y="243.3" class="st0" width="4.9" height="38.1"></rect>
			<rect x="113.1" y="243.3" class="st0" width="4.9" height="38.1"></rect>
			<rect x="42.7" y="257.9" class="st0" width="4.9" height="23.5"></rect>
		</g>
		<g>
			<path class="st0" d="M202.8,277.4c-2.3,2.3-5,3.4-8.3,3.4c-3.2,0-5.9-1.1-8.3-3.4c-2.3-2.3-3.4-5-3.4-8.3c0-3.2,1-6,3.1-8.3     c2-2.3,4.5-3.4,7.4-3.4c3.2,0,5.8,1.4,7.9,4.1V244h5v25.1C206.2,272.4,205.1,275.1,202.8,277.4z M199.3,264.4     c-1.3-1.3-2.9-1.9-4.7-1.9s-3.4,0.6-4.7,1.9s-2,2.9-2,4.7c0,1.9,0.7,3.4,2,4.7c1.3,1.3,2.9,1.9,4.7,1.9s3.4-0.6,4.7-1.9     s2-2.9,2-4.7C201.2,267.3,200.6,265.7,199.3,264.4z"></path>
			<path class="st0" d="M216.8,258.2v21.9h-5v-21.9H216.8z"></path>
			<path class="st0" d="M231.6,257.5c0.3,0,0.7,0,1.2,0.1v5c-0.4-0.1-0.8-0.1-1.2-0.1c-1.5,0-2.7,0.5-3.7,1.5s-1.5,2.2-1.5,3.7v12.4     h-5v-12.4c0-2.8,1-5.2,3-7.2S228.8,257.5,231.6,257.5z"></path>
			<path class="st0" d="M247.8,275.8c2.5,0,4.5-0.8,6-2.4l3.6,3.5c-2.6,2.6-5.7,3.8-9.5,3.8c-3.4,0-6.4-1.1-8.9-3.3     c-1.2-1.1-2.1-2.3-2.8-3.7c-0.7-1.4-1-3-1-4.6c0-3.2,1.1-6,3.2-8.2c2.2-2.3,4.8-3.5,7.9-3.5c3.1,0,5.8,1.2,7.9,3.5     c2.2,2.2,3.2,5,3.2,8.2c0,0.8-0.1,1.5-0.2,2.1h-16.7c0.5,1.4,1.5,2.5,2.8,3.3C244.6,275.4,246.2,275.8,247.8,275.8z M249.8,263.7     c-1.1-0.9-2.3-1.3-3.6-1.3s-2.5,0.4-3.6,1.3s-1.8,1.9-2.2,3.3h11.7C251.6,265.7,250.9,264.6,249.8,263.7z"></path>
			<path class="st0" d="M267.7,273.9c1.3,1.3,2.9,1.9,4.7,1.9s3.4-0.6,4.7-1.9l3.5,3.5c-2.3,2.3-5,3.4-8.3,3.4     c-3.2,0-5.9-1.1-8.2-3.4c-2.3-2.3-3.5-5.1-3.5-8.3c0-3.2,1.1-6,3.4-8.3s5.1-3.4,8.3-3.4c3.2,0,6,1.1,8.3,3.4l-3.5,3.5     c-1.4-1.3-2.9-1.9-4.7-1.9c-1.8,0-3.4,0.6-4.7,1.9c-1.3,1.3-2,2.9-2,4.7C265.7,271,266.4,272.6,267.7,273.9z"></path>
			<path class="st0" d="M292.2,270.8c0,1.4,0.5,2.5,1.5,3.5s2.2,1.5,3.5,1.5v5c-2.8,0-5.1-1-7-2.9s-2.9-4.3-2.9-7v-7.7h-4.7v-5h4.7     v-5l5-2.5v7.5h5.2v5h-5.2v7.6H292.2z"></path>
		</g>
	</g>
</g>
<path class="st0" d="M152.1,166c15.6,0,28-12.4,28-28s-12.4-28-28-28c-13.1,0-24.3,9.3-27.4,21.8c-0.6,1.9-0.6,3.7-0.6,5.6v1.2l0,0  l0,0C124.7,153.6,137.1,166,152.1,166"></path>
</svg>
